<svg t="1749807197939" class="icon" viewBox="0 0 1024 1024" version="1.1" xmlns="http://www.w3.org/2000/svg" p-id="6326" width="200" height="200"><path d="M706.56 263.3728a208.128 208.128 0 1 1-416.256 0 208.128 208.128 0 0 1 416.256 0z m-76.8 0a131.328 131.328 0 1 0-262.656 0 131.328 131.328 0 0 0 262.656 0z m131.1744 412.672l-47.616-47.616 106.5984-106.5984q9.8816-9.8304 23.808-9.8304t23.808 9.8304l115.8656 115.9168q9.8816 9.8816 9.8816 23.808t-9.8816 23.808l-106.5984 106.5984-47.5648-47.616 82.7904-82.7904-68.3008-68.3008-82.7904 82.7904zM106.4448 953.1392h321.28v-76.8H183.296v-179.8656q0-39.8848 28.16-68.096 28.2624-28.16 68.1472-28.16h239.7696v-76.8H279.552q-71.68 0-122.368 50.688-50.7392 50.688-50.7392 122.368v256.6656z m778.6496-20.48l-312.4736-312.4736 47.616-47.616 7.168 7.2704 305.3056 305.2544-47.616 47.616z m-290.7648-319.744l25.856-25.856-33.0752 33.1264 7.2192-7.2704z m133.5296 15.5136l7.168 7.2704 25.9072 25.856-33.0752-33.1264z m-42.496 354.9696q-9.8304 9.8816-23.808 9.8816-13.9264 0-23.808-9.8816l-115.9168-115.9168Q512 857.6512 512 843.776q0-13.9776 9.8304-23.808l106.5984-106.5984 47.616 47.616-82.7904 82.7904 68.3008 68.3008 82.7904-82.7904 47.616 47.616-106.5984 106.5472z" p-id="6327"></path></svg>