<svg t="1747635186195" class="icon" viewBox="0 0 1024 1024" version="1.1" xmlns="http://www.w3.org/2000/svg" p-id="1513" width="200" height="200"><path d="M0 51.2m38.4 0l947.2 0q38.4 0 38.4 38.4l0 0q0 38.4-38.4 38.4l-947.2 0q-38.4 0-38.4-38.4l0 0q0-38.4 38.4-38.4Z" p-id="1514"></path><path d="M460.8 332.8m38.4 0l486.4 0q38.4 0 38.4 38.4l0 0q0 38.4-38.4 38.4l-486.4 0q-38.4 0-38.4-38.4l0 0q0-38.4 38.4-38.4Z" p-id="1515"></path><path d="M460.8 614.4m38.4 0l486.4 0q38.4 0 38.4 38.4l0 0q0 38.4-38.4 38.4l-486.4 0q-38.4 0-38.4-38.4l0 0q0-38.4 38.4-38.4Z" p-id="1516"></path><path d="M0 896m38.4 0l947.2 0q38.4 0 38.4 38.4l0 0q0 38.4-38.4 38.4l-947.2 0q-38.4 0-38.4-38.4l0 0q0-38.4 38.4-38.4Z" p-id="1517"></path><path d="M20.1984 489.1136l275.5584-137.7792a25.6 25.6 0 0 1 37.0432 22.8864v275.5584a25.6 25.6 0 0 1-37.0432 22.8864L20.1984 534.8864a25.6 25.6 0 0 1 0-45.7728z" p-id="1518"></path></svg>