<svg t="1749802889290" class="icon" viewBox="0 0 1090 1024" version="1.1" xmlns="http://www.w3.org/2000/svg" p-id="3521" width="200" height="200"><path d="M192.58709697 962H105.54838701a43.54838701 43.54838701 0 0 1 0-87.09677402h43.54838702V163.61290302q0-42.09677402 29.78709696-71.82580604Q208.61290302 62 250.70967705 62h348.38709698q42.09677402 0 71.82580693 29.78709698Q700.70967705 121.51612901 700.70967705 163.61290302V294.25806494h130.64516191q42.09677402 0 71.82580606 29.7870961Q932.96774199 353.77419395 932.96774199 395.87096797V874.90322597h43.54838702a43.54838701 43.54838701 0 0 1 0 87.09677403H192.58709697zM236.19354805 874.90322597h377.41935497V163.61290302q0-14.51612901-14.516129-14.51612899h-348.38709697Q236.19354805 149.09677403 236.19354805 163.61290302V874.90322597z m464.516129-493.54838701V874.90322597h145.16129092V395.87096797q0-14.51612901-14.51612901-14.51612901H700.70967705zM337.80645195 308.77419394h174.19354805a43.54838701 43.54838701 0 0 1 0 87.09677403h-174.19354805a43.54838701 43.54838701 0 0 1 0-87.09677403z m0 174.19354805h174.19354805a43.54838701 43.54838701 0 0 1 0 87.09677403h-174.19354805a43.54838701 43.54838701 0 0 1 0-87.09677403z m0 174.19354804h174.19354805a43.54838701 43.54838701 0 0 1 0 87.09677491h-174.19354805a43.54838701 43.54838701 0 0 1 0-87.09677491z" p-id="3522"></path></svg>