<svg t="1747115411459" class="icon" viewBox="0 0 1024 1024" version="1.1" xmlns="http://www.w3.org/2000/svg" p-id="2746" width="200" height="200"><path d="M907.8 240H732.7v-9.3c0-42-14.8-77.9-44.6-107.6-29.7-29.7-65.6-44.6-107.6-44.6h-137c-42 0-77.9 14.9-107.6 44.6-29.7 29.7-44.6 65.6-44.6 107.6v9.3H116.2c-20.8 0-37.7 16.9-37.7 37.7 0 20.8 16.9 37.7 37.7 37.7h54.1v479c0 41.7 14.7 77.3 44.2 106.8 29.5 29.5 65.1 44.2 106.8 44.2h381.2c41.7 0 77.3-14.7 106.8-44.2s44.2-65.1 44.2-106.8v-479h54.2c20.8 0 37.7-16.9 37.7-37.7 0.1-20.8-16.8-37.7-37.6-37.7z m-541.1-9.3c0-21.2 7.5-39.3 22.5-54.3s33.1-22.5 54.3-22.5h137c21.2 0 39.3 7.5 54.3 22.5s22.5 33.1 22.5 54.3v9.3H366.7v-9.3z m411.5 563.8c0 20.9-7.4 38.7-22.1 53.5-14.8 14.8-32.6 22.2-53.5 22.2H321.4c-20.9 0-38.7-7.4-53.5-22.2-14.8-14.8-22.2-32.6-22.2-53.5V322.3h532.5v472.2z m-191.4-27.4c20.8 0 37.7-16.9 37.7-37.7V482.5c0-20.8-16.9-37.7-37.7-37.7-20.8 0-37.7 16.9-37.7 37.7v246.9c0 20.8 16.9 37.7 37.7 37.7z m-164.6 0c20.8 0 37.7-16.9 37.7-37.7V482.5c0-20.8-16.9-37.7-37.7-37.7-20.8 0-37.7 16.9-37.7 37.7v246.9c0 20.8 16.9 37.7 37.7 37.7z" p-id="2747"></path><path d="M459.9 482.5v246.9c0 20.8-16.9 37.7-37.7 37.7-20.8 0-37.7-16.9-37.7-37.7V482.5c0-20.8 16.9-37.7 37.7-37.7 20.8 0 37.7 16.9 37.7 37.7zM624.5 482.5v246.9c0 20.8-16.9 37.7-37.7 37.7-20.8 0-37.7-16.9-37.7-37.7V482.5c0-20.8 16.9-37.7 37.7-37.7 20.9 0 37.7 16.9 37.7 37.7z" p-id="2748"></path><path d="M459.9 482.5v246.9c0 20.8-16.9 37.7-37.7 37.7-20.8 0-37.7-16.9-37.7-37.7V482.5c0-20.8 16.9-37.7 37.7-37.7 20.8 0 37.7 16.9 37.7 37.7zM624.5 482.5v246.9c0 20.8-16.9 37.7-37.7 37.7-20.8 0-37.7-16.9-37.7-37.7V482.5c0-20.8 16.9-37.7 37.7-37.7 20.9 0 37.7 16.9 37.7 37.7z" p-id="2749"></path></svg>