<svg t="1747189663495" class="icon" viewBox="0 0 1024 1024" version="1.1" xmlns="http://www.w3.org/2000/svg" p-id="922" width="200" height="200"><path d="M512 54.857143C259.657143 54.857143 54.857143 259.657143 54.857143 512s204.8 457.142857 457.142857 457.142857 457.142857-204.8 457.142857-457.142857S764.342857 54.857143 512 54.857143z m0 73.142857c93.257143 0 177.371429 32.914286 245.028571 87.771429L217.6 757.028571c-54.857143-65.828571-87.771429-151.771429-87.771429-245.028571C128 299.885714 299.885714 128 512 128z m0 768c-93.257143 0-177.371429-32.914286-245.028571-87.771429l539.428571-541.257142c54.857143 65.828571 87.771429 151.771429 87.771429 245.028571 1.828571 212.114286-170.057143 384-382.171429 384z" p-id="923"></path></svg>