<svg t="1750316904689" class="icon" viewBox="0 0 1024 1024" version="1.1" xmlns="http://www.w3.org/2000/svg" p-id="1433" width="200" height="200"><path d="M341.333333 341.333333a42.666667 42.666667 0 0 0 0 85.333334h42.666667a42.666667 42.666667 0 0 0 0-85.333334H341.333333z m213.333334 512H256a42.666667 42.666667 0 0 1-42.666667-42.666666V213.333333a42.666667 42.666667 0 0 1 42.666667-42.666666h213.333333v128a128 128 0 0 0 128 128h128v85.333333a42.666667 42.666667 0 0 0 85.333334 0V384v-2.56a55.765333 55.765333 0 0 0-2.56-11.52v-3.84a45.653333 45.653333 0 0 0-8.106667-11.946667l-256-256a45.696 45.696 0 0 0-11.946667-8.106666 12.373333 12.373333 0 0 0-4.266666 0 46.890667 46.890667 0 0 0-13.226667-4.693334H256a128 128 0 0 0-128 128v597.333334a128 128 0 0 0 128 128h298.666667a42.666667 42.666667 0 0 0 0-85.333334z m0-622.506666L665.173333 341.333333H597.333333a42.666667 42.666667 0 0 1-42.666666-42.666666V230.826667zM597.333333 512H341.333333a42.666667 42.666667 0 0 0 0 85.333333h256a42.666667 42.666667 0 0 0 0-85.333333z m286.293334 268.373333a42.752 42.752 0 0 0-60.586667 0l-12.373333 12.8V682.666667a42.666667 42.666667 0 0 0-85.333334 0v110.506666l-12.373333-12.8a42.837333 42.837333 0 1 0-60.586667 60.586667l85.333334 85.333333a42.666667 42.666667 0 0 0 14.08 8.96 40.106667 40.106667 0 0 0 32.426666 0 42.666667 42.666667 0 0 0 14.08-8.96l85.333334-85.333333a42.752 42.752 0 0 0 0-60.586667zM512 768a42.666667 42.666667 0 0 0 0-85.333333H341.333333a42.666667 42.666667 0 0 0 0 85.333333h170.666667z" p-id="1434"></path></svg>