<svg t="1747627086789" class="icon" viewBox="0 0 1024 1024" version="1.1" xmlns="http://www.w3.org/2000/svg" p-id="1093" width="200" height="200"><path d="M512.5 54c0.537 0 1.074 0.004 1.61 0.013l0.001-0.01C766.593 54.87 971 259.815 971 512.5 971 765.723 765.723 971 512.5 971l1.48-0.01c-0.493 0.006-0.986 0.01-1.48 0.01l-0.983-0.005-0.498-0.006C258.476 970.198 54 765.23 54 512.5 54 259.277 259.277 54 512.5 54l-1.61 0.013c0.535-0.009 1.072-0.013 1.61-0.013z m0 661.1c-39.044 0-77.175 5.692-113.443 16.553 6.412 25.46 13.957 49.13 22.522 70.544C449.037 870.843 483.23 907 512.5 907c29.27 0 63.463-36.157 90.921-104.803 8.565-21.413 16.11-45.084 22.523-70.54-36.268-10.865-74.4-16.557-113.444-16.557z m-173.467 40.068l-0.592 0.288c-30.072 14.8-58.235 33.452-83.82 55.584l-0.003 0.01c40.027 34.605 87.085 61.296 138.744 77.641-7.196-11.538-14.005-24.163-20.405-37.796l-1.118-2.402a469.716 469.716 0 0 1-9.683-22.527c-8.726-21.816-16.46-45.54-23.123-70.798z m346.934-0.004l-0.096 0.37c-6.642 25.122-14.343 48.721-23.027 70.432a469.716 469.716 0 0 1-9.683 22.527l-1.118 2.402c-6.4 13.633-13.21 26.258-20.404 37.795 51.659-16.344 98.718-43.036 138.745-77.642l-0.004-0.008c-25.753-22.279-54.118-41.03-84.413-55.876zM310.361 544.5H119.279c6.72 83.705 39.567 160.037 90.382 220.836 34.684-30.55 73.557-55.54 115.343-74.273-8.166-45.982-13.167-95.418-14.643-146.563z m595.36 0H714.639c-1.476 51.145-6.477 100.581-14.643 146.566 41.786 18.73 80.66 43.72 115.34 74.264 50.818-60.793 83.665-137.126 90.385-220.83z m-255.11 0H374.389c1.329 43.32 5.34 85.17 11.73 124.257C426.641 657.165 469.095 651.1 512.5 651.1s85.86 6.064 126.38 17.654c6.391-39.084 10.402-80.933 11.73-124.253zM209.665 259.668l-0.613 0.726c-50.468 60.68-83.08 136.736-89.773 220.106H310.36c1.477-51.145 6.478-100.582 14.644-146.567-41.786-18.73-80.659-43.72-115.34-74.265z m176.455 96.578l-0.18 1.099c-6.287 38.771-10.235 80.242-11.55 123.155h276.22c-1.328-43.32-5.338-85.17-11.729-124.257C598.359 367.836 555.905 373.9 512.5 373.9s-85.86-6.065-126.38-17.654z m429.22-96.582l-2.407 2.108c-34.07 29.59-72.114 53.863-112.937 72.165 8.166 45.981 13.167 95.418 14.644 146.563h191.08c-6.718-83.705-39.566-160.037-90.38-220.836zM512.5 118l-0.88 0.01c-29.072 0.716-62.857 36.833-90.041 104.793-8.565 21.413-16.11 45.084-22.523 70.54 36.269 10.865 74.4 16.557 113.444 16.557s77.176-5.692 113.443-16.553c-6.412-25.46-13.957-49.13-22.522-70.544C575.963 154.157 541.77 118 512.5 118z m119.138 18.309l0.49 0.788c7.014 11.323 13.66 23.685 19.915 37.008l1.118 2.402a469.716 469.716 0 0 1 9.683 22.527c8.726 21.816 16.46 45.54 23.124 70.8 30.294-14.845 58.659-33.595 84.412-55.874l0.004-0.008c-40.027-34.606-87.086-61.298-138.746-77.643z m-238.277 0.001l-5.554 1.802c-49.479 16.471-94.602 42.477-133.19 75.838l0.005 0.01c25.752 22.278 54.117 41.028 84.41 55.875 6.664-25.261 14.398-48.985 23.124-70.8a469.716 469.716 0 0 1 9.683-22.528l1.118-2.402c6.4-13.633 13.21-26.258 20.404-37.795z" p-id="1094"></path></svg>