<svg t="1749621807156" class="icon" viewBox="0 0 1024 1024" version="1.1" xmlns="http://www.w3.org/2000/svg" p-id="3028" width="200" height="200"><path d="M520.12373333 194.6112h-271.36q-26.3168 0-45.1584 18.8416t-18.8416 45.1584v517.12q0 26.3168 18.8416 45.1584t45.1584 18.8416h512q26.3168 0 45.1584-18.8416t18.8416-45.1584v-271.36a38.4 38.4 0 0 1 76.8 0v271.36q0 58.1632-41.3184 99.4816-41.3184 41.3184-99.4816 41.3184h-512q-58.1632 0-99.4816-41.3184-41.3184-41.3184-41.3184-99.4816v-517.12q0-58.1632 41.3184-99.4816 41.3184-41.3184 99.4816-41.3184h271.36a38.4 38.4 0 0 1 0 76.8z m-93.9008 354.4576l409.6-414.72a38.4 38.4 0 1 1 54.6304 53.9648l-409.6 414.72a38.4 38.4 0 1 1-54.6304-53.9648z" p-id="3029"></path></svg>