<svg t="1747189244338" class="icon" viewBox="0 0 1024 1024" version="1.1" xmlns="http://www.w3.org/2000/svg" p-id="3046" width="200" height="200"><path d="M960 512q0 185.5488-131.2256 316.7744T512 960q-185.5488 0-316.7744-131.2256T64 512q0-185.5488 131.2256-316.7744T512 64q185.5488 0 316.7744 131.2256T960 512z m-76.8 0q0-153.7536-108.6976-262.5024Q665.7024 140.8 512 140.8q-153.7536 0-262.5024 108.6976Q140.8 358.2464 140.8 512q0 153.7536 108.6976 262.5024Q358.2464 883.2 512 883.2q153.7536 0 262.5024-108.6976Q883.2 665.7024 883.2 512z m-444.2624 76.8L308.6848 459.1104 254.464 513.6384l185.2416 184.2688 330.1376-338.2784-54.9888-53.6576-275.968 282.7776z" p-id="3047"></path></svg>