<svg t="1749807133482" class="icon" viewBox="0 0 1024 1024" version="1.1" xmlns="http://www.w3.org/2000/svg" p-id="6184" width="200" height="200"><path d="M209.7152 192h168.2944a38.4 38.4 0 0 0 0-76.8H209.7152q-39.1168 0-66.6624 27.136-27.8528 27.3408-27.8528 66.4064v606.5152q0 39.0656 27.8528 66.4576 27.5456 27.0848 66.6624 27.0848h604.5696q39.1168 0 66.6624-27.136 27.8528-27.3408 27.8528-66.4064v-232.8064a38.4 38.4 0 0 0-76.8 0v232.8064q0 16.7424-17.7152 16.7424H209.7152q-7.68 0-12.8-5.0688-4.9152-4.8128-4.9152-11.6736V208.7424q0-6.8608 4.864-11.6736 5.1712-5.0688 12.8-5.0688zM743.936 126.464l153.6 153.6a38.2976 38.2976 0 0 1 0 54.272l-153.6 153.6a38.4 38.4 0 1 1-54.272-54.272l88.064-88.064H460.8a38.4 38.4 0 0 1 0-76.8h316.928l-88.064-88.064a38.4 38.4 0 0 1 54.272-54.272z" p-id="6185"></path></svg>