<svg t="1749807098430" class="icon" viewBox="0 0 1024 1024" version="1.1" xmlns="http://www.w3.org/2000/svg" p-id="6042" width="200" height="200"><path d="M814.7968 832h-166.8608a38.4 38.4 0 1 0 0 76.8h166.8608q38.9632 0 66.4064-27.2384 27.5968-27.3408 27.5968-66.304V208.7424q0-38.9632-27.5968-66.304-27.4432-27.2384-66.4064-27.2384H209.2032q-38.9632 0-66.4064 27.2384-27.5968 27.3408-27.5968 66.304v232.8064a38.4 38.4 0 1 0 76.8 0V208.7424q0-6.9632 4.864-11.776 4.9664-4.9664 12.3392-4.9664h605.5936q17.2032 0 17.2032 16.7424v606.5152q0 6.9632-4.864 11.776-4.9664 4.9664-12.3392 4.9664z m-432.3328-39.936l88.064-88.064H153.6a38.4 38.4 0 0 1 0-76.8h316.928l-88.064-88.064a38.4 38.4 0 0 1 54.272-54.272l153.6 153.6a38.2976 38.2976 0 0 1 0 54.272l-153.6 153.6a38.4 38.4 0 1 1-54.272-54.272z" p-id="6043"></path></svg>