<svg t="1749807618986" class="icon" viewBox="0 0 1024 1024" version="1.1" xmlns="http://www.w3.org/2000/svg" p-id="2778" width="200" height="200"><path d="M920.9 283.9c-3.8-10.7-12.3-19.1-23-22.8L524.2 131.8c-7.9-2.7-16.5-2.7-24.4 0L126.1 261c-19.5 6.8-29.8 28-23.1 47.5 3.7 10.7 12.1 19.2 22.8 23L499.5 464c8.1 2.9 16.9 2.9 24.9 0l373.7-132.4c9.3-3.3 17-10.2 21.2-19.1 4.4-9 4.9-19.3 1.6-28.6zM512 389.1l-260.5-92.3L512 206.7l260.6 90.1L512 389.1z" p-id="2779"></path><path d="M512 583.4L150.7 457c-4-1.4-8.1-2.1-12.3-2.1-20.6 0-37.4 16.7-37.4 37.4 0 15.9 10 30 25 35.3l373.7 130.8c8 2.8 16.7 2.8 24.7 0L898 527.5c15-5.2 25-19.4 25-35.3 0-20.6-16.7-37.4-37.4-37.4-4.2 0-8.4 0.7-12.3 2.1L512 583.4z" p-id="2780"></path><path d="M512 777.8L150.7 651.3c-4-1.4-8.1-2.1-12.3-2.1-20.6 0-37.4 16.7-37.4 37.4 0 15.9 10 30 25 35.3l373.7 130.8c8 2.8 16.7 2.8 24.7 0L898 721.8c15-5.2 25-19.4 25-35.3 0-20.6-16.7-37.4-37.4-37.4-4.2 0-8.4 0.7-12.3 2.1L512 777.8z" p-id="2781"></path></svg>