<svg t="1749803018332" class="icon" viewBox="0 0 1024 1024" version="1.1" xmlns="http://www.w3.org/2000/svg" p-id="3663" width="200" height="200"><path d="M106.666667 680.220444v-512a42.666667 42.666667 0 0 1 42.666666-42.666666h725.447111a42.666667 42.666667 0 0 1 42.666667 42.666666v512a42.666667 42.666667 0 0 1-42.666667 42.666667H149.333333a42.666667 42.666667 0 0 1-42.666666-42.666667z m85.333333-469.333333v426.666667h640.113778v-426.666667H192z m394.581333 284.16l123.164445-115.484444-58.368-62.236445-93.980445 88.064-56.718222-53.134222a42.666667 42.666667 0 0 0-60.302222 1.991111L331.207111 470.812444 393.500444 529.066667 473.486222 443.733333l54.727111 51.313778a42.666667 42.666667 0 0 0 58.368 0zM256 839.111111h512a42.666667 42.666667 0 1 1 0 85.333333h-512a42.666667 42.666667 0 0 1 0-85.333333z" p-id="3664"></path></svg>