<svg t="1747189088556" class="icon" viewBox="0 0 1024 1024" version="1.1" xmlns="http://www.w3.org/2000/svg" p-id="2897" width="200" height="200"><path d="M504.6272 56.832L398.7456 132.3008a25.6 25.6 0 0 0-0.256 41.5232l104.96 76.7488a25.6 25.6 0 0 0 40.7552-20.48l0.2048-36.6592q111.9232 10.24 193.9456 92.2112Q832 379.392 832 512q0 132.7104-93.696 226.3552Q644.7616 832 512 832q-132.7104 0-226.304-93.6448Q192 644.6592 192 512a38.4 38.4 0 1 0-76.8 0q0 164.5056 116.1216 280.6784Q347.4944 908.8 512 908.8t280.6784-116.1216Q908.8 676.5056 908.8 512t-116.1216-280.6784q-104.3968-104.3456-247.808-114.944l0.256-38.5024a25.6 25.6 0 0 0-40.448-20.992zM409.6 512c0-56.32 46.08-102.4 102.4-102.4s102.4 46.08 102.4 102.4-46.08 102.4-102.4 102.4-102.4-46.08-102.4-102.4z" p-id="2898"></path></svg>