<svg t="1749782417390" class="icon" viewBox="0 0 1024 1024" version="1.1" xmlns="http://www.w3.org/2000/svg" p-id="1280" width="200" height="200"><path d="M181.333333 384a32 32 0 0 1-64 0v-111.146667a155.52 155.52 0 0 1 155.52-155.52H384a32 32 0 0 1 0 64h-111.146667a91.52 91.52 0 0 0-91.52 91.52V384zM640 181.333333a32 32 0 0 1 0-64h111.146667a155.52 155.52 0 0 1 155.52 155.52V384a32 32 0 0 1-64 0v-111.146667a91.52 91.52 0 0 0-91.52-91.52H640zM842.666667 640a32 32 0 0 1 64 0v111.146667a155.52 155.52 0 0 1-155.52 155.52H640a32 32 0 0 1 0-64h111.146667a91.52 91.52 0 0 0 91.52-91.52V640zM384 842.666667a32 32 0 0 1 0 64h-111.146667a155.52 155.52 0 0 1-155.52-155.52V640a32 32 0 0 1 64 0v111.146667a91.52 91.52 0 0 0 91.52 91.52H384z m-192-298.666667a32 32 0 0 1 0-64h640a32 32 0 0 1 0 64H192z" p-id="1281"></path></svg>