<svg t="1749807253641" class="icon" viewBox="0 0 1024 1024" version="1.1" xmlns="http://www.w3.org/2000/svg" p-id="6468" width="200" height="200"><path d="M919.9104 485.9904q0 168.7552-119.1424 287.8976l-1.6384 1.6384 144.4864 144.5376a38.4 38.4 0 1 1-54.272 54.272l-149.504-149.504q-99.328 68.1984-226.9696 68.1984-168.7552 0-287.8976-119.1424-119.1424-119.1424-119.1424-287.8976 0-168.7552 119.1424-287.8976 119.1424-119.1424 287.8976-119.1424 168.7552 0 287.8976 119.1424 119.1424 119.1424 119.1424 287.8976z m-76.8 0q0-136.9088-96.6656-233.5744-96.6656-96.6656-233.5744-96.6656-136.9088 0-233.5744 96.6656-96.6656 96.6656-96.6656 233.5744 0 136.9088 96.6656 233.5744 96.6656 96.6656 233.5744 96.6656 136.9088 0 233.5744-96.6656 96.6656-96.6656 96.6656-233.5744z" p-id="6469"></path></svg>