<svg t="1749803042721" class="icon" viewBox="0 0 1024 1024" version="1.1" xmlns="http://www.w3.org/2000/svg" p-id="3805" width="200" height="200"><path d="M512 540.728889a216.974222 216.974222 0 1 0 0-433.948445 216.974222 216.974222 0 0 0 0 433.948445z m0-348.615111a131.640889 131.640889 0 1 1 0 263.281778 131.640889 131.640889 0 0 1 0-263.281778z m-381.952 548.352q0-68.664889 65.706667-114.119111 58.311111-40.277333 138.524444-40.277334h355.441778q80.213333 0 138.524444 40.277334 65.706667 45.511111 65.706667 114.119111v176.753778H130.048v-176.753778z m85.333333 0v91.420444h593.237334v-91.420444q0-23.893333-28.899556-43.918222-36.408889-25.144889-89.998222-25.144889H334.279111q-53.589333 0-89.998222 25.144889-28.899556 19.968-28.899556 43.918222z" p-id="3806"></path></svg>